<?xml version="1.0" encoding="UTF-8"?>
<!-- Generator: Adobe Illustrator 19.2.1, SVG Export Plug-In . SVG Version: 6.00 Build 0)  -->
<svg version="1.1" id="Layer_1" xmlns="http://www.w3.org/2000/svg" xmlns:xlink="http://www.w3.org/1999/xlink" x="0px" y="0px" viewBox="0 0 248.8 41.5" style="enable-background:new 0 0 248.8 41.5;" xml:space="preserve">
<style type="text/css">
	.st0{fill:#FFFFFF;}
</style>
<g>
	<path class="st0" d="M17.4,3v29.3c0,2.1,0.1,3.4,0.3,3.9c0.4,1.2,1.6,1.8,3.7,1.8h1.4v2H6.6v-2H8c1.5,0,2.5-0.3,3.1-0.9   c0.6-0.6,0.9-2.2,0.9-4.8V3h-1.2C8.9,3,7.2,3.6,5.7,4.7c-2.3,1.7-3.6,5-3.9,10H0L0.3,1h28.9l0.2,13.6h-1.7   c-0.7-5.7-2.4-9.3-5.1-10.7C21.4,3.3,19.9,3,18.3,3H17.4z"/>
	<rect y="18.2" class="st0" width="8.2" height="8.2"/>
	<rect x="21.2" y="18.2" class="st0" width="8.2" height="8.2"/>
	<rect x="45.7" y="18.2" class="st0" width="8.2" height="8.2"/>
	<rect x="70.2" y="18.2" class="st0" width="8.2" height="8.2"/>
	<path class="st0" d="M100.9,40.1h-1.8L88.8,4.6v25.5c0,2.6,0.1,4.3,0.3,4.9c0.6,2,2,3.1,4,3.1h0.8v2H81.8v-2h1   c1.5,0,2.5-0.6,3.1-1.8c0.5-1,0.7-3,0.7-6.2V7.6c0-1.3-0.1-2.2-0.2-2.7c-0.2-0.9-0.7-1.5-1.5-1.7c-0.5-0.2-1.1-0.2-2-0.2h-1.1V1   h11.3l8.3,28.6L109.9,1h11.5v1.9h-0.8c-1.5,0-2.6,0.3-3.2,0.9c-0.6,0.6-0.9,2.2-0.9,4.8v23.7c0,2.1,0.1,3.4,0.3,3.9   c0.4,1.2,1.6,1.8,3.7,1.8h0.8v2h-14.8v-2h0.5c1.5,0,2.6-0.3,3.2-1c0.5-0.6,0.8-2.2,0.8-4.7V4.5L100.9,40.1z"/>
	<path class="st0" d="M127.5,16.6c-2,2.6-2.9,6-2.9,10c0,4.1,1,7.4,3,10c2.3,2.9,5.2,4.3,8.9,4.3c3.7,0,6.6-1.4,8.9-4.3   c2-2.5,3-5.9,3-10c0-4.1-1-7.5-3-10c-2.3-2.9-5.2-4.3-8.7-4.3C132.7,12.2,129.6,13.7,127.5,16.6 M141.3,17.7c0.9,2,1.4,5,1.4,8.9   c0,8.2-2.1,12.4-6.2,12.4c-4.2,0-6.2-4.2-6.2-12.5c0-3.8,0.5-6.7,1.4-8.7c1-2.3,2.6-3.5,4.8-3.5C138.6,14.2,140.3,15.4,141.3,17.7"/>
	<path class="st0" d="M159.1,0.5l-8.4,0.4v1.9h0.4c1.1,0,1.9,0.2,2.3,0.7c0.5,0.5,0.7,1.8,0.7,4v26.8c0,2.6-0.1,4.2-0.3,4.8   c-0.1,0.3-0.2,0.6-0.3,1h1.9c1.1-1.9,1.9-2.8,2.4-2.8c0.3,0,0.6,0.1,1,0.4c1,0.8,1.7,1.3,1.9,1.5c1.4,0.9,3,1.4,4.8,1.4   c3.6,0,6.3-1.6,8.3-4.8c1.7-2.7,2.5-5.9,2.5-9.7c0-4.4-1.2-7.9-3.5-10.5c-1.8-2-4.1-3-7-3c-3.3,0-5.6,1.4-6.9,4.3V0.5z M170.9,26.3   c0,8.2-1.9,12.3-5.8,12.3c-2.2,0-3.9-1.1-4.9-3.4c-1-2.1-1.5-5-1.5-8.7c0-3.7,0.6-6.6,1.7-8.7c1.2-2.1,2.8-3.2,4.8-3.2   C169,14.6,170.9,18.5,170.9,26.3"/>
	<path class="st0" d="M185.5,0.7c0.9,0,1.6,0.3,2.2,1c0.6,0.6,0.9,1.4,0.9,2.2c0,0.9-0.3,1.6-0.9,2.3c-0.6,0.6-1.4,0.9-2.3,0.9   c-0.9,0-1.6-0.3-2.2-0.9c-0.6-0.6-0.9-1.4-0.9-2.3c0-0.9,0.3-1.6,1-2.3C183.8,1,184.6,0.7,185.5,0.7 M188.3,12.6v20.9   c0,2.2,0.2,3.5,0.7,4c0.4,0.5,1.2,0.7,2.2,0.7h0.9v1.8h-12.7v-1.8h0.9c1.1,0,1.8-0.3,2.3-0.8c0.4-0.5,0.7-1.8,0.7-4v-14   c0-2.2-0.2-3.5-0.7-4c-0.4-0.5-1.2-0.7-2.3-0.7h-0.7V13L188.3,12.6z"/>
	<path class="st0" d="M203.1,0.5v33c0,2.2,0.2,3.5,0.7,4c0.4,0.5,1.2,0.7,2.2,0.7h0.9v1.8h-12.7v-1.8h0.9c1.1,0,1.8-0.3,2.3-0.8   c0.4-0.5,0.7-1.8,0.7-4V7.4c0-2.1-0.2-3.5-0.7-4c-0.4-0.5-1.2-0.7-2.3-0.7h-0.7V0.9L203.1,0.5z"/>
	<path class="st0" d="M229.5,18.3c-2-4-5-6.1-9.1-6.1c-2.7,0-5,1.1-7,3.2c-2.4,2.7-3.7,6.4-3.7,10.9c0,5,1.2,8.7,3.7,11.4   c2,2.1,4.5,3.2,7.6,3.2c4.2,0,7.5-2.5,10-7.4l-1.7-0.9c-0.7,1.5-1.5,2.8-2.2,3.6c-1.4,1.6-3,2.4-5.1,2.4c-2.6,0-4.4-1.3-5.5-3.8   c-0.8-1.8-1.2-4.6-1.2-8.4h16C231.2,23.2,230.6,20.5,229.5,18.3 M215.3,24.4c0-2,0.2-3.6,0.6-5c0.9-3.4,2.5-5.1,4.8-5.1   c2,0,3.4,1.3,4.3,3.8c0.6,1.7,0.9,3.8,0.9,6.3H215.3z"/>
	<rect x="239.5" y="18.2" class="st0" width="8.2" height="8.2"/>
</g>
</svg>