<?xml version="1.0" standalone="no"?>
<!DOCTYPE svg PUBLIC "-//W3C//DTD SVG 1.1//EN" "http://www.w3.org/Graphics/SVG/1.1/DTD/svg11.dtd">
<svg xmlns="http://www.w3.org/2000/svg" xmlns:xlink="http://www.w3.org/1999/xlink" version="1.1" viewBox="0 0 24.152 21" width="100%" height="100%">
	<polygon points="5 10.687 5 10.687 6.5 9.187 6.5 9.187 6.5 9.187 9.5 12.187 15.5 6.187 15.5 6.187 15.5 6.187 17 7.687 17 7.687 17 7.687 9.5 15.187 5 10.687" style="fill:#fff"/>
	<path d="M2.3,21.313a1.476,1.476,0,0,1-1.212-.8,1.584,1.584,0,0,1,.042-1.542l5.106-8.935L11.28,1.649A1.376,1.376,0,0,1,12.416.9a1.291,1.291,0,0,1,1.09.713l10.17,17.31a1.7,1.7,0,0,1,.066,1.6,1.469,1.469,0,0,1-1.223.792Z" transform="translate(-0.333 -0.313)" style="fill:#f68c1f"/>
	<path d="M12.416,1.463a.736.736,0,0,1,.594.433l5.12,8.717,5.054,8.6a.622.622,0,0,1,.057.732c-.135.238-.385.214-.723.214H2.3c-.432,0-.632-.086-.712-.227a.763.763,0,0,1,.044-.833l5.091-8.836,5.05-8.358a.788.788,0,0,1,.642-.446m0-1.15a1.925,1.925,0,0,0-1.628,1.022L5.738,9.711l-5.1,8.745A1.84,1.84,0,0,0,2.3,21.313H22.518a1.809,1.809,0,0,0,1.653-2.837L19.122,9.956,14,1.277A1.812,1.812,0,0,0,12.416.313Z" transform="translate(-0.333 -0.313)" style="fill:#f68c1f"/>
	<circle cx="12.076" cy="16.579" r="1.65" style="fill:#fff"/>
	<polygon points="12.407 6.516 11.913 6.516 10.681 6.516 11.122 14.164 11.913 14.164 12.407 14.164 13.199 14.164 13.639 6.516 12.407 6.516" style="fill:#fff"/>
</svg>